<?xml version="1.0" encoding="UTF-8"?>
<svg id="Ebene_2" data-name="Ebene 2" xmlns="http://www.w3.org/2000/svg" viewBox="0 0 87.39 85.4">
  <defs>
    <style>
      .cls-1 {
        fill: #d1b170;
      }

      .cls-2 {
        fill: #fff;
      }
    </style>
  </defs>
  <g id="Business_Card_Back_1" data-name="Business Card Back_1">
    <g id="Texts">
      <g id="Ebene_1-2" data-name="Ebene 1">
        <g id="Zahnrad">
          <g>
            <path class="cls-1" d="M83.17,58.7l3.72.83v-.02c.3.06.5.31.5.61h-.02v7.01h.02c0,.29-.2.53-.49.59v.02l-3.73.81c-.39,1.4-.95,2.73-1.66,3.99h0l2.05,3.23h.03c.15.24.12.56-.09.77h-.01l-2.49,2.48-2.47,2.47h-.01c-.2.2-.51.24-.76.08h0l-3.22-2.06h0c-1.26.71-2.6,1.27-3.99,1.66h0l-.82,3.74h.02c-.07.28-.32.49-.61.49h-7.03c-.29-.01-.53-.21-.6-.49h0l-.83-3.74c-1.39-.39-2.72-.95-3.98-1.65h-.02l-3.2,2.05h-.02c-.24.16-.56.11-.75-.08l-2.49-2.47-2.48-2.48c-.21-.21-.24-.53-.08-.78h0l2.05-3.22c-.7-1.26-1.25-2.59-1.64-3.99h-.02l-3.72-.81v-.02c-.29-.06-.49-.3-.49-.59h0v-7.01c0-.3.2-.55.49-.61v.02l3.72-.83h.02c.39-1.4.94-2.73,1.64-3.99l-2.05-3.23h0c-.16-.26-.13-.58.08-.79h0l2.47-2.45,2.49-2.48v-.02c.2-.2.52-.24.76-.09v.02l3.21,2.07h.02c1.26-.71,2.59-1.27,3.98-1.66l.83-3.74h0c.07-.28.31-.48.6-.49h7.03c.29,0,.54.21.61.49h-.02l.82,3.74h0c1.39.39,2.73.95,3.99,1.65h0l3.22-2.06h0c.25-.17.57-.13.77.07v.02l2.47,2.48,2.49,2.47v-.02c.22.21.25.53.1.78h-.03l-2.05,3.23h0c.71,1.27,1.27,2.6,1.66,4ZM74.4,63.63c0-4.85-3.93-8.78-8.78-8.78s-8.77,3.93-8.77,8.78,3.92,8.77,8.77,8.77,8.78-3.93,8.78-8.77Z"/>
            <g>
              <path class="cls-2" d="M74.4,63.63c0-4.85-3.93-8.78-8.78-8.78s-8.77,3.93-8.77,8.78,3.92,8.77,8.77,8.77,8.78-3.93,8.78-8.77Z"/>
              <path class="cls-1" d="M44.34,59.51c-.29.06-.49.31-.49.61"/>
              <path class="cls-1" d="M43.85,67.12h0c0,.3.2.54.49.6"/>
              <line class="cls-1" x1="44.34" y1="67.74" x2="48.06" y2="68.55"/>
              <path class="cls-1" d="M48.08,68.55c.39,1.4.94,2.73,1.64,3.99,0,0,0,.01,0,.01"/>
              <line class="cls-1" x1="49.72" y1="72.54" x2="47.67" y2="75.77"/>
              <path class="cls-1" d="M47.66,75.76c-.16.25-.13.57.08.78"/>
              <polyline class="cls-1" points="47.74 76.54 50.22 79.02 52.71 81.49"/>
              <path class="cls-1" d="M52.71,81.49c.19.19.51.24.75.09"/>
              <polyline class="cls-1" points="53.46 81.58 53.48 81.57 56.68 79.51"/>
              <path class="cls-1" d="M56.7,79.52c1.26.7,2.59,1.26,3.98,1.65h0"/>
              <line class="cls-1" x1="60.68" y1="81.17" x2="61.51" y2="84.91"/>
              <path class="cls-1" d="M61.5,84.91c.07.28.31.48.6.49"/>
              <path class="cls-1" d="M69.13,85.4c.29,0,.54-.21.61-.49"/>
              <line class="cls-1" x1="69.72" y1="84.91" x2="70.54" y2="81.17"/>
              <path class="cls-1" d="M70.55,81.17c1.39-.39,2.73-.95,3.99-1.65"/>
              <line class="cls-1" x1="74.54" y1="79.51" x2="77.76" y2="81.58"/>
              <path class="cls-1" d="M77.76,81.57c.25.16.56.12.76-.08"/>
              <polyline class="cls-1" points="78.52 81.49 78.53 81.49 81 79.02 83.49 76.54"/>
              <path class="cls-1" d="M83.5,76.54c.21-.21.24-.53.09-.78"/>
              <line class="cls-1" x1="83.56" y1="75.77" x2="81.51" y2="72.55"/>
              <path class="cls-1" d="M81.51,72.55h0c.71-1.27,1.27-2.6,1.66-4"/>
              <polyline class="cls-1" points="83.16 68.55 83.17 68.55 86.89 67.74"/>
              <path class="cls-1" d="M86.9,67.72c.29-.06.49-.3.49-.59h0"/>
              <path class="cls-1" d="M87.39,60.12c0-.3-.2-.55-.49-.61"/>
              <polyline class="cls-1" points="86.89 59.53 83.17 58.7 83.16 58.7"/>
              <path class="cls-1" d="M83.17,58.7c-.39-1.4-.95-2.73-1.66-3.99"/>
              <polyline class="cls-1" points="81.51 54.71 81.51 54.7 83.56 51.48"/>
              <path class="cls-1" d="M83.59,51.47c.15-.25.12-.57-.09-.78"/>
              <polyline class="cls-1" points="83.49 50.71 81 48.24 78.52 45.76"/>
              <path class="cls-1" d="M78.53,45.74c-.2-.2-.52-.24-.77-.08"/>
              <line class="cls-1" x1="77.76" y1="45.67" x2="74.54" y2="47.74"/>
              <path class="cls-1" d="M74.54,47.73c-1.26-.7-2.6-1.26-3.99-1.65"/>
              <line class="cls-1" x1="70.54" y1="46.08" x2="69.72" y2="42.34"/>
              <path class="cls-1" d="M69.74,42.34c-.07-.28-.32-.49-.61-.49"/>
              <path class="cls-1" d="M62.11,41.85h0c-.29,0-.53.21-.6.49"/>
              <line class="cls-1" x1="61.51" y1="42.34" x2="60.68" y2="46.08"/>
              <path class="cls-1" d="M60.69,46.08h0c-1.39.39-2.72.95-3.98,1.65"/>
              <line class="cls-1" x1="56.68" y1="47.74" x2="53.46" y2="45.67"/>
              <path class="cls-1" d="M53.48,45.66s0,0,0,0c-.24-.15-.56-.11-.76.09"/>
              <polyline class="cls-1" points="52.71 45.76 50.22 48.24 47.75 50.7 47.74 50.71"/>
              <path class="cls-1" d="M47.74,50.69c-.21.21-.24.53-.08.78"/>
              <line class="cls-1" x1="47.67" y1="51.48" x2="49.72" y2="54.71"/>
              <path class="cls-1" d="M49.73,54.7s0,0,0,0c-.7,1.26-1.25,2.59-1.64,3.99"/>
              <line class="cls-1" x1="48.06" y1="58.7" x2="44.34" y2="59.53"/>
            </g>
          </g>
        </g>
        <g id="Punkte">
          <g>
            <g>
              <path class="cls-1" d="M65.84,16.51c2.81,0,5.08,2.28,5.08,5.09s-2.27,5.08-5.08,5.08-5.09-2.28-5.09-5.08,2.28-5.09,5.09-5.09Z"/>
              <path class="cls-1" d="M35.78,0C38.59,0,40.86,2.28,40.86,5.09s-2.27,5.08-5.08,5.08-5.09-2.27-5.09-5.08S32.97,0,35.78,0Z"/>
              <path class="cls-1" d="M5.09,16.67c2.81,0,5.08,2.28,5.08,5.09s-2.27,5.08-5.08,5.08S0,24.57,0,21.76s2.28-5.09,5.09-5.09Z"/>
              <path class="cls-1" d="M5.16,52.1c2.81,0,5.08,2.27,5.08,5.08s-2.27,5.09-5.08,5.09S.07,59.99.07,57.18s2.28-5.08,5.09-5.08Z"/>
              <path class="cls-1" d="M35.78,68.21c2.81,0,5.08,2.27,5.08,5.08s-2.27,5.09-5.08,5.09-5.09-2.28-5.09-5.09,2.28-5.08,5.09-5.08Z"/>
              <path class="cls-1" d="M35.78,35.55c2.81,0,5.08,2.28,5.08,5.09s-2.27,5.08-5.08,5.08-5.09-2.27-5.09-5.08,2.28-5.09,5.09-5.09Z"/>
            </g>
            <g>
              <path class="cls-1" d="M70.92,21.6c0-2.81-2.27-5.09-5.08-5.09s-5.09,2.28-5.09,5.09,2.28,5.08,5.09,5.08,5.08-2.28,5.08-5.08Z"/>
              <path class="cls-1" d="M10.17,21.76c0-2.81-2.27-5.09-5.08-5.09S0,18.95,0,21.76s2.28,5.08,5.09,5.08,5.08-2.27,5.08-5.08Z"/>
              <path class="cls-1" d="M40.86,5.09c0-2.81-2.27-5.09-5.08-5.09s-5.09,2.28-5.09,5.09,2.28,5.08,5.09,5.08,5.08-2.27,5.08-5.08Z"/>
              <path class="cls-1" d="M40.86,40.64c0-2.81-2.27-5.09-5.08-5.09s-5.09,2.28-5.09,5.09,2.28,5.08,5.09,5.08,5.08-2.27,5.08-5.08Z"/>
              <path class="cls-1" d="M40.86,73.29c0-2.81-2.27-5.08-5.08-5.08s-5.09,2.27-5.09,5.08,2.28,5.09,5.09,5.09,5.08-2.28,5.08-5.09Z"/>
              <path class="cls-1" d="M10.24,57.18c0-2.81-2.27-5.08-5.08-5.08S.07,54.37.07,57.18s2.28,5.09,5.09,5.09,5.08-2.28,5.08-5.09Z"/>
            </g>
          </g>
        </g>
        <g id="Linien">
          <g>
            <g>
              <path class="cls-1" d="M48.24,46.82h0c-.41.43-.81.88-1.2,1.34h0l-5.4-3.1s6.59,1.76,6.59,1.76Z"/>
              <polygon class="cls-1" points="67.25 28.88 67.25 39.51 65.5 39.46 65.5 28.88 67.25 28.88"/>
              <polygon class="cls-1" points="59.94 17.14 59.11 18.69 41.76 9.33 42.61 7.78 59.94 17.14"/>
              <polygon class="cls-1" points="54.99 39.1 50.92 32.26 42.43 37.53 41.49 36.06 50.02 30.75 38.74 11.81 40.25 10.91 51.52 29.81 59.33 24.95 60.25 26.45 52.42 31.32 56.02 37.37 61.78 27.65 63.29 28.55 57.04 39.1 58.97 42.32 58.54 44.39 58.03 44.18 56.02 40.81 54.45 43.47 52.69 42.99 54.99 39.1"/>
              <polygon class="cls-1" points="41.65 45.06 42.54 43.53 48.24 46.82 41.65 45.06"/>
              <polygon class="cls-1" points="28.93 7.8 29.76 9.35 11.88 18.99 11.04 17.45 28.93 7.8"/>
              <polygon class="cls-1" points="29.72 69.12 28.91 70.67 11.2 61.37 12.03 59.8 29.72 69.12"/>
              <polygon class="cls-1" points="15.68 41.03 9.61 51.34 8.1 50.46 14.65 39.3 8.21 28.39 9.72 27.51 15.66 37.57 19.28 31.41 10.93 26.19 11.85 24.7 20.18 29.88 31.3 10.95 32.82 11.83 21.67 30.82 30.04 36.04 29.13 37.53 20.77 32.33 16.69 39.28 21.48 47.38 28.95 43.35 29.77 44.9 22.36 48.89 32.82 66.57 31.3 67.47 20.81 49.72 11.99 54.49 11.16 52.94 19.93 48.21 15.68 41.03"/>
              <rect class="cls-1" x="4.34" y="29.07" width="1.76" height="20.81"/>
            </g>
            <g>
              <polyline class="cls-1" points="41.65 45.06 42.54 43.53 48.24 46.82"/>
              <path class="cls-1" d="M48.25,46.82c-.41.43-.81.88-1.2,1.34"/>
              <line class="cls-1" x1="47.05" y1="48.17" x2="41.65" y2="45.06"/>
              <polygon class="cls-1" points="65.5 39.46 67.25 39.51 67.25 28.88 65.5 28.88 65.5 39.46"/>
              <polygon class="cls-1" points="29.76 9.35 28.93 7.8 11.04 17.45 11.88 18.99 29.76 9.35"/>
              <polygon class="cls-1" points="29.72 69.12 28.91 70.67 11.2 61.37 12.03 59.8 29.72 69.12"/>
              <polyline class="cls-1" points="6.1 49.88 4.34 49.88 4.34 29.07 6.1 29.07 6.1 49.88"/>
              <polyline class="cls-1" points="21.67 30.82 30.04 36.04 29.13 37.53 20.77 32.33 16.69 39.28 21.48 47.38 28.95 43.35 29.77 44.9 22.36 48.89 32.82 66.57 31.3 67.47 20.81 49.72 11.99 54.49 11.16 52.94 19.93 48.21 15.68 41.03 9.61 51.34 8.1 50.46 14.65 39.3 8.21 28.39 9.72 27.51 15.66 37.57 19.28 31.41 10.93 26.19 11.85 24.7 20.18 29.88 31.3 10.95 32.82 11.83 21.67 30.82"/>
              <polygon class="cls-1" points="41.76 9.33 42.61 7.78 59.94 17.14 59.11 18.69 41.76 9.33"/>
              <polygon class="cls-1" points="61.78 27.65 56.02 37.37 52.42 31.32 60.25 26.45 59.33 24.95 51.52 29.81 40.25 10.91 38.74 11.81 50.02 30.75 41.49 36.06 42.43 37.53 50.92 32.26 54.99 39.1 52.69 42.99 54.45 43.47 56.02 40.81 58.03 44.18 58.54 44.39 58.97 42.32 57.04 39.1 63.29 28.55 61.78 27.65"/>
            </g>
          </g>
        </g>
      </g>
    </g>
  </g>
</svg>