<?xml version="1.0" encoding="UTF-8"?>
<svg id="Ebene_2" data-name="Ebene 2" xmlns="http://www.w3.org/2000/svg" viewBox="0 0 353.34 86.1">
  <defs>
    <style>
      .cls-1 {
        fill: none;
        stroke: #4683c4;
        stroke-linecap: round;
        stroke-linejoin: round;
        stroke-width: .7px;
      }

      .cls-2 {
        fill: #4683c4;
      }
    </style>
  </defs>
  <g id="Ebene_1" data-name="Ebene 1">
    <g id="Zahnrad">
      <g>
        <path class="cls-2" d="M83.52,59.05l3.72.83v-.02c.3.06.5.31.5.61h-.02v7.01h.02c0,.29-.2.53-.49.59v.02s-3.73.81-3.73.81c-.39,1.4-.95,2.73-1.66,3.99h0s2.05,3.23,2.05,3.23h.03c.15.24.12.56-.09.77h-.01l-2.49,2.48-2.47,2.47h-.01c-.2.2-.51.24-.76.08h0s-3.22-2.06-3.22-2.06h0c-1.26.71-2.6,1.27-3.99,1.66h0l-.82,3.74h.02c-.07.28-.32.49-.61.49h-7.03c-.29-.01-.53-.21-.6-.49h0l-.83-3.74c-1.39-.39-2.72-.95-3.98-1.65h-.02s-3.2,2.05-3.2,2.05h-.02c-.24.16-.56.11-.75-.08l-2.49-2.47-2.48-2.48c-.21-.21-.24-.53-.08-.78h.01s2.05-3.22,2.05-3.22c-.7-1.26-1.25-2.59-1.64-3.99h-.02l-3.72-.81v-.02c-.29-.06-.49-.3-.49-.59h0v-7.01c0-.3.2-.55.49-.61v.02l3.72-.83h.02c.39-1.4.94-2.73,1.64-3.99l-2.05-3.23h-.01c-.16-.26-.13-.58.08-.79h.01s2.47-2.45,2.47-2.45l2.49-2.48v-.02c.2-.2.52-.24.76-.09v.02s3.21,2.07,3.21,2.07h.02c1.26-.71,2.59-1.27,3.98-1.66l.83-3.74h0c.07-.28.31-.48.6-.49h7.03c.29,0,.54.21.61.49h-.02l.82,3.74h0c1.39.39,2.73.95,3.99,1.65h0s3.22-2.06,3.22-2.06h0c.25-.17.57-.13.77.07v.02s2.47,2.48,2.47,2.48l2.49,2.47v-.02c.22.21.25.53.1.78h-.03s-2.05,3.23-2.05,3.23h0c.71,1.27,1.27,2.6,1.66,4ZM74.75,63.98c0-4.85-3.93-8.78-8.78-8.78s-8.77,3.93-8.77,8.78,3.92,8.77,8.77,8.77,8.78-3.93,8.78-8.77Z"/>
        <g>
          <path class="cls-1" d="M74.75,63.98c0-4.85-3.93-8.78-8.78-8.78s-8.77,3.93-8.77,8.78,3.92,8.77,8.77,8.77,8.78-3.93,8.78-8.77Z"/>
          <path class="cls-1" d="M44.69,59.86c-.29.06-.49.31-.49.61"/>
          <polyline class="cls-1" points="44.2 60.47 44.2 63.98 44.2 67.47"/>
          <path class="cls-1" d="M44.2,67.47h0c0,.3.2.54.49.6"/>
          <line class="cls-1" x1="44.69" y1="68.09" x2="48.41" y2="68.9"/>
          <path class="cls-1" d="M48.43,68.9c.39,1.4.94,2.73,1.64,3.99.01,0,.01.01.01.01"/>
          <line class="cls-1" x1="50.07" y1="72.89" x2="48.02" y2="76.12"/>
          <path class="cls-1" d="M48.01,76.11c-.16.25-.13.57.08.78"/>
          <polyline class="cls-1" points="48.09 76.89 50.57 79.37 53.06 81.84"/>
          <path class="cls-1" d="M53.06,81.84c.19.19.51.24.75.09"/>
          <polyline class="cls-1" points="53.81 81.93 53.83 81.92 57.03 79.86"/>
          <path class="cls-1" d="M57.05,79.87c1.26.7,2.59,1.26,3.98,1.65h.01"/>
          <line class="cls-1" x1="61.03" y1="81.52" x2="61.86" y2="85.26"/>
          <path class="cls-1" d="M61.85,85.26c.07.28.31.48.6.49"/>
          <polyline class="cls-1" points="62.45 85.75 62.46 85.75 65.96 85.75 69.47 85.75"/>
          <path class="cls-1" d="M69.48,85.75c.29,0,.54-.21.61-.49"/>
          <line class="cls-1" x1="70.07" y1="85.26" x2="70.89" y2="81.52"/>
          <path class="cls-1" d="M70.9,81.52c1.39-.39,2.73-.95,3.99-1.65"/>
          <line class="cls-1" x1="74.89" y1="79.86" x2="78.11" y2="81.93"/>
          <path class="cls-1" d="M78.11,81.92c.25.16.56.12.76-.08"/>
          <polyline class="cls-1" points="78.87 81.84 78.88 81.84 81.35 79.37 83.84 76.89"/>
          <path class="cls-1" d="M83.85,76.89c.21-.21.24-.53.09-.78"/>
          <line class="cls-1" x1="83.91" y1="76.12" x2="81.86" y2="72.9"/>
          <path class="cls-1" d="M81.86,72.9h0c.71-1.27,1.27-2.6,1.66-4"/>
          <polyline class="cls-1" points="83.51 68.9 83.52 68.9 87.24 68.09"/>
          <path class="cls-1" d="M87.25,68.07c.29-.06.49-.3.49-.59h0"/>
          <polyline class="cls-1" points="87.72 67.48 87.72 63.98 87.72 60.47"/>
          <path class="cls-1" d="M87.74,60.47c0-.3-.2-.55-.49-.61"/>
          <polyline class="cls-1" points="87.24 59.88 83.52 59.05 83.51 59.05"/>
          <path class="cls-1" d="M83.52,59.05c-.39-1.4-.95-2.73-1.66-3.99"/>
          <polyline class="cls-1" points="81.86 55.06 81.86 55.05 83.91 51.83"/>
          <path class="cls-1" d="M83.94,51.82c.15-.25.12-.57-.09-.78"/>
          <polyline class="cls-1" points="83.84 51.06 81.35 48.59 78.87 46.11"/>
          <path class="cls-1" d="M78.88,46.09c-.2-.2-.52-.24-.77-.08"/>
          <line class="cls-1" x1="78.11" y1="46.02" x2="74.89" y2="48.09"/>
          <path class="cls-1" d="M74.89,48.08c-1.26-.7-2.6-1.26-3.99-1.65"/>
          <line class="cls-1" x1="70.89" y1="46.43" x2="70.07" y2="42.69"/>
          <path class="cls-1" d="M70.09,42.69c-.07-.28-.32-.49-.61-.49"/>
          <polyline class="cls-1" points="69.47 42.2 65.96 42.2 62.46 42.2"/>
          <path class="cls-1" d="M62.46,42.2h-.01c-.29.01-.53.21-.6.49"/>
          <line class="cls-1" x1="61.86" y1="42.69" x2="61.03" y2="46.43"/>
          <path class="cls-1" d="M61.04,46.43h-.01c-1.39.39-2.72.95-3.98,1.65"/>
          <line class="cls-1" x1="57.03" y1="48.09" x2="53.81" y2="46.02"/>
          <path class="cls-1" d="M53.83,46.01s-.01,0-.01-.01c-.24-.15-.56-.11-.76.09"/>
          <polyline class="cls-1" points="53.06 46.11 50.57 48.59 48.1 51.05 48.09 51.06"/>
          <path class="cls-1" d="M48.09,51.04c-.21.21-.24.53-.08.78"/>
          <line class="cls-1" x1="48.02" y1="51.83" x2="50.07" y2="55.06"/>
          <path class="cls-1" d="M50.08,55.05s0,.01-.01.01c-.7,1.26-1.25,2.59-1.64,3.99"/>
          <line class="cls-1" x1="48.41" y1="59.05" x2="44.69" y2="59.88"/>
        </g>
      </g>
    </g>
    <g id="Punkte">
      <g>
        <g>
          <path class="cls-2" d="M66.19,16.86c2.81,0,5.08,2.28,5.08,5.09s-2.27,5.08-5.08,5.08-5.09-2.28-5.09-5.08,2.28-5.09,5.09-5.09Z"/>
          <path class="cls-2" d="M36.13.35c2.81,0,5.08,2.28,5.08,5.09s-2.27,5.08-5.08,5.08-5.09-2.27-5.09-5.08S33.32.35,36.13.35Z"/>
          <path class="cls-2" d="M5.44,17.02c2.81,0,5.08,2.28,5.08,5.09s-2.27,5.08-5.08,5.08S.35,24.92.35,22.11s2.28-5.09,5.09-5.09Z"/>
          <path class="cls-2" d="M5.51,52.45c2.81,0,5.08,2.27,5.08,5.08s-2.27,5.09-5.08,5.09S.42,60.34.42,57.53s2.28-5.08,5.09-5.08Z"/>
          <path class="cls-2" d="M36.13,68.56c2.81,0,5.08,2.27,5.08,5.08s-2.27,5.09-5.08,5.09-5.09-2.28-5.09-5.09,2.28-5.08,5.09-5.08Z"/>
          <path class="cls-2" d="M36.13,35.9c2.81,0,5.08,2.28,5.08,5.09s-2.27,5.08-5.08,5.08-5.09-2.27-5.09-5.08,2.28-5.09,5.09-5.09Z"/>
        </g>
        <g>
          <path class="cls-1" d="M71.27,21.95c0-2.81-2.27-5.09-5.08-5.09s-5.09,2.28-5.09,5.09,2.28,5.08,5.09,5.08,5.08-2.28,5.08-5.08Z"/>
          <path class="cls-1" d="M10.52,22.11c0-2.81-2.27-5.09-5.08-5.09S.35,19.3.35,22.11s2.28,5.08,5.09,5.08,5.08-2.27,5.08-5.08Z"/>
          <path class="cls-1" d="M41.21,5.44c0-2.81-2.27-5.09-5.08-5.09s-5.09,2.28-5.09,5.09,2.28,5.08,5.09,5.08,5.08-2.27,5.08-5.08Z"/>
          <path class="cls-1" d="M41.21,40.99c0-2.81-2.27-5.09-5.08-5.09s-5.09,2.28-5.09,5.09,2.28,5.08,5.09,5.08,5.08-2.27,5.08-5.08Z"/>
          <path class="cls-1" d="M41.21,73.64c0-2.81-2.27-5.08-5.08-5.08s-5.09,2.27-5.09,5.08,2.28,5.09,5.09,5.09,5.08-2.28,5.08-5.09Z"/>
          <path class="cls-1" d="M10.59,57.53c0-2.81-2.27-5.08-5.08-5.08S.42,54.72.42,57.53s2.28,5.09,5.09,5.09,5.08-2.28,5.08-5.09Z"/>
        </g>
      </g>
    </g>
    <g id="Linien">
      <g>
        <g>
          <path class="cls-2" d="M48.59,47.17h.01c-.41.43-.81.88-1.2,1.34h0s-5.4-3.1-5.4-3.1l6.59,1.76Z"/>
          <polygon class="cls-2" points="67.6 29.23 67.6 39.86 65.85 39.81 65.85 29.23 67.6 29.23"/>
          <polygon class="cls-2" points="60.29 17.49 59.46 19.04 42.11 9.68 42.96 8.13 60.29 17.49"/>
          <polygon class="cls-2" points="55.34 39.45 51.27 32.61 42.78 37.88 41.84 36.41 50.37 31.1 39.09 12.16 40.6 11.26 51.87 30.16 59.68 25.3 60.6 26.8 52.77 31.67 56.37 37.72 62.13 28 63.64 28.9 57.39 39.45 59.32 42.67 58.89 44.74 58.38 44.53 56.37 41.16 54.8 43.82 53.04 43.34 55.34 39.45"/>
          <polygon class="cls-2" points="42 45.41 42.89 43.88 48.59 47.17 42 45.41"/>
          <polygon class="cls-2" points="29.28 8.15 30.11 9.7 12.23 19.34 11.39 17.8 29.28 8.15"/>
          <polygon class="cls-2" points="30.07 69.47 29.26 71.02 11.55 61.72 12.38 60.15 30.07 69.47"/>
          <polygon class="cls-2" points="16.03 41.38 9.96 51.69 8.45 50.81 15 39.65 8.56 28.74 10.07 27.86 16.01 37.92 19.63 31.76 11.28 26.54 12.2 25.05 20.53 30.23 31.65 11.3 33.17 12.18 22.02 31.17 30.39 36.39 29.48 37.88 21.12 32.68 17.04 39.63 21.83 47.73 29.3 43.7 30.12 45.25 22.71 49.24 33.17 66.92 31.65 67.82 21.16 50.07 12.34 54.84 11.51 53.29 20.28 48.56 16.03 41.38"/>
          <rect class="cls-2" x="4.69" y="29.42" width="1.76" height="20.81"/>
        </g>
        <g>
          <polyline class="cls-1" points="42 45.41 42.89 43.88 48.59 47.17"/>
          <path class="cls-1" d="M48.6,47.17c-.41.43-.81.88-1.2,1.34"/>
          <line class="cls-1" x1="47.4" y1="48.52" x2="42" y2="45.41"/>
          <polygon class="cls-1" points="65.85 39.81 67.6 39.86 67.6 29.23 65.85 29.23 65.85 39.81"/>
          <polygon class="cls-1" points="30.11 9.7 29.28 8.15 11.39 17.8 12.23 19.34 30.11 9.7"/>
          <polygon class="cls-1" points="30.07 69.47 29.26 71.02 11.55 61.72 12.38 60.15 30.07 69.47"/>
          <polyline class="cls-1" points="6.45 50.23 4.69 50.23 4.69 29.42 6.45 29.42 6.45 50.23"/>
          <polyline class="cls-1" points="22.02 31.17 30.39 36.39 29.48 37.88 21.12 32.68 17.04 39.63 21.83 47.73 29.3 43.7 30.12 45.25 22.71 49.24 33.17 66.92 31.65 67.82 21.16 50.07 12.34 54.84 11.51 53.29 20.28 48.56 16.03 41.38 9.96 51.69 8.45 50.81 15 39.65 8.56 28.74 10.07 27.86 16.01 37.92 19.63 31.76 11.28 26.54 12.2 25.05 20.53 30.23 31.65 11.3 33.17 12.18 22.02 31.17"/>
          <polygon class="cls-1" points="42.11 9.68 42.96 8.13 60.29 17.49 59.46 19.04 42.11 9.68"/>
          <polygon class="cls-1" points="62.13 28 56.37 37.72 52.77 31.67 60.6 26.8 59.68 25.3 51.87 30.16 40.6 11.26 39.09 12.16 50.37 31.1 41.84 36.41 42.78 37.88 51.27 32.61 55.34 39.45 53.04 43.34 54.8 43.82 56.37 41.16 58.38 44.53 58.89 44.74 59.32 42.67 57.39 39.45 63.64 28.9 62.13 28"/>
        </g>
      </g>
    </g>
    <g id="B">
      <g>
        <g>
          <polygon class="cls-2" points="251.42 31.01 251.42 61.01 242.29 61.01 242.29 50.72 230.97 50.72 230.97 43.46 242.29 43.46 242.29 33.55 230.97 33.55 230.97 25.91 246.32 25.91 251.42 31.01"/>
          <polygon class="cls-2" points="352.99 31.01 352.99 36.21 346.17 36.21 343.41 33.55 333.48 33.55 333.48 25.91 347.9 25.91 352.99 31.01"/>
          <polygon class="cls-2" points="352.99 50.72 352.99 55.92 347.9 61.01 333.48 61.01 333.48 53.38 343.41 53.38 346.17 50.72 352.99 50.72"/>
          <polygon class="cls-2" points="332 25.91 332 61.01 327.95 61.01 322.88 55.92 322.88 31.01 327.95 25.91 332 25.91"/>
          <polygon class="cls-2" points="312.6 54.12 312.6 61.01 297.86 61.01 297.86 54.12 300.72 54.12 300.72 32.81 297.86 32.81 297.86 25.91 312.6 25.91 312.6 32.81 309.74 32.81 309.74 54.12 312.6 54.12"/>
          <polygon class="cls-2" points="290.06 26.53 290.06 32.93 289.43 33.55 279.66 33.55 279.66 61.01 270.53 61.01 270.53 25.91 289.43 25.91 290.06 26.53"/>
          <polygon class="cls-2" points="269.04 25.91 269.04 33.55 260.74 33.55 260.13 32.93 260.13 26.53 260.74 25.91 269.04 25.91"/>
          <polygon class="cls-2" points="229.47 50.72 229.47 61.01 220.35 61.01 220.35 31.01 225.42 25.91 229.47 25.91 229.47 33.55 229.47 50.72"/>
          <polygon class="cls-2" points="209.13 25.91 209.13 61.01 200.01 61.01 200.01 41.54 193.94 53.38 189.19 53.38 175.11 25.93 183.12 25.93 191.57 42.4 200.01 25.91 209.13 25.91"/>
          <polygon class="cls-2" points="183.12 44.8 183.12 61.01 173.98 61.01 173.98 26.99 183.12 44.8"/>
          <polygon class="cls-2" points="163.72 54.12 163.72 61.01 148.98 61.01 148.98 54.12 151.84 54.12 151.84 32.81 148.98 32.81 148.98 25.91 163.72 25.91 163.72 32.81 160.86 32.81 160.86 54.12 163.72 54.12"/>
          <polygon class="cls-2" points="138.72 47.24 138.72 55.92 133.62 61.01 117.64 61.01 117.64 53.38 129.66 53.38 129.66 47.24 117.64 47.24 117.64 39.68 129.66 39.68 129.66 33.55 117.64 33.55 117.64 25.91 133.62 25.91 138.72 31.01 138.72 39.68 134.94 43.46 138.72 47.24"/>
          <polygon class="cls-2" points="116.16 47.24 116.16 61.01 107.04 61.01 107.04 25.91 116.16 25.91 116.16 33.55 116.16 47.24"/>
        </g>
        <g>
          <polygon class="cls-1" points="347.9 61.01 333.48 61.01 333.48 53.38 343.41 53.38 346.17 50.72 352.99 50.72 352.99 55.92 347.9 61.01"/>
          <polygon class="cls-1" points="347.9 25.91 333.48 25.91 333.48 33.55 343.41 33.55 346.17 36.21 352.99 36.21 352.99 31.01 347.9 25.91"/>
          <polygon class="cls-1" points="322.88 55.92 327.95 61.01 332 61.01 332 25.91 327.95 25.91 322.88 31.01 322.88 55.92"/>
          <polygon class="cls-1" points="173.98 26.99 183.12 44.8 183.12 61.01 173.98 61.01 173.98 26.99"/>
          <polygon class="cls-1" points="183.12 25.93 175.11 25.93 189.19 53.38 193.94 53.38 200.01 41.54 200.01 61.01 209.13 61.01 209.13 25.91 200.01 25.91 191.57 42.4 183.12 25.93"/>
          <polygon class="cls-1" points="297.86 61.01 297.86 54.12 300.72 54.12 300.72 32.81 297.86 32.81 297.86 25.91 312.6 25.91 312.6 32.81 309.74 32.81 309.74 54.12 312.6 54.12 312.6 61.01 297.86 61.01"/>
          <polygon class="cls-1" points="269.04 25.91 260.74 25.91 260.13 26.53 260.13 32.93 260.74 33.55 269.04 33.55 269.04 25.91"/>
          <polygon class="cls-1" points="279.66 33.55 279.66 61.01 270.53 61.01 270.53 25.91 289.43 25.91 290.06 26.53 290.06 32.93 289.43 33.55 279.66 33.55"/>
          <polyline class="cls-1" points="225.42 25.91 220.35 31.01 220.35 61.01 229.47 61.01 229.47 50.72 229.47 33.55 229.47 25.91 225.42 25.91"/>
          <polyline class="cls-1" points="230.97 50.72 230.97 43.46 242.29 43.46 242.29 33.55 230.97 33.55 230.97 25.91 246.32 25.91 251.42 31.01 251.42 61.01 242.29 61.01 242.29 50.72 230.97 50.72"/>
          <polygon class="cls-1" points="148.98 54.12 151.84 54.12 151.84 32.81 148.98 32.81 148.98 25.91 163.72 25.91 163.72 32.81 160.86 32.81 160.86 54.12 163.72 54.12 163.72 61.01 148.98 61.01 148.98 54.12"/>
          <polyline class="cls-1" points="117.64 61.01 133.62 61.01 138.72 55.92 138.72 47.24 134.94 43.46 138.72 39.68 138.72 31.01"/>
          <polyline class="cls-1" points="107.04 61.01 116.16 61.01 116.16 47.24 116.16 33.55 116.16 25.91 107.04 25.91 107.04 61.01"/>
          <polyline class="cls-1" points="117.64 61.01 117.64 53.38 129.66 53.38 129.66 47.24 117.64 47.24 117.64 39.68 129.66 39.68 129.66 33.55 117.64 33.55 117.64 25.91 133.62 25.91 138.72 31.01"/>
        </g>
      </g>
    </g>
  </g>
</svg>